<?xml version="1.0" encoding="UTF-8"?>
<!DOCTYPE svg PUBLIC "-//W3C//DTD SVG 1.1//EN" "http://www.w3.org/Graphics/SVG/1.1/DTD/svg11.dtd">
<!-- Creator: CorelDRAW X8 -->
<svg xmlns="http://www.w3.org/2000/svg" xml:space="preserve" width="13in" height="6in" version="1.1" style="shape-rendering:geometricPrecision; text-rendering:geometricPrecision; image-rendering:optimizeQuality; fill-rule:evenodd; clip-rule:evenodd"
viewBox="0 0 13000 6000"
 xmlns:xlink="http://www.w3.org/1999/xlink">
 <defs>
  <style type="text/css">
   <![CDATA[
    .fil1 {fill:#337321}
    .fil2 {fill:#EDB512}
    .fil0 {fill:#00599C}
    .fil3 {fill:#00599C;fill-rule:nonzero}
    .fil4 {fill:#00599C;fill-rule:nonzero}
   ]]>
  </style>
 </defs>
 <g id="Layer_x0020_1">
  <metadata id="CorelCorpID_0Corel-Layer"/>
  <path class="fil0" d="M3916 2759c-34,26 -52,58 -106,72 -56,15 -119,7 -161,-13 -95,-46 -47,-22 13,-44 173,-64 140,-378 -28,-581 -201,-245 -468,-256 -468,85l-125 -192c-23,-38 -37,-66 -60,-105l-175 -308c-182,-343 -151,-180 -74,35 121,395 220,793 243,1216 8,139 13,466 -2,595 -64,573 -194,1088 -732,1326 -44,20 -166,34 -140,77 21,36 220,57 263,58 223,12 442,-43 635,-115 145,-54 266,-137 384,-227 346,-262 630,-773 661,-1206 14,-195 11,-478 -75,-669 -18,-41 -18,-34 -53,-4z"/>
  <path class="fil1" d="M1231 4562l0 0zm0 0l191 101c419,188 958,-79 657,-578 -377,-624 -1527,-716 -1335,-1519 72,-308 -68,27 -98,92 -159,348 -186,803 -92,1196 23,98 48,172 84,259 192,455 575,862 1050,1035 92,32 168,60 263,78 913,195 2026,-306 2290,-1433 39,-200 42,-424 21,-641 -46,-465 -317,-920 -639,-1190 -74,-64 -145,-96 -160,-99 -11,-9 114,110 184,190 30,30 50,55 77,87 57,71 114,149 150,207 396,660 338,1476 -145,2066 -130,157 -166,186 -310,301 -372,298 -850,398 -1292,324 -239,-38 -458,-138 -647,-268 -66,-46 -210,-150 -249,-208z"/>
  <polygon class="fil2" points="2439,733 2439,732 2392,1022 2115,1075 2356,1210 2334,1500 2535,1296 2536,1297 2806,1418 2669,1167 2859,953 2582,983 "/>
  <path class="fil3" d="M5593 2480c0,103 -30,185 -89,245 -59,61 -140,91 -244,91 -104,0 -186,-30 -245,-91 -59,-60 -88,-142 -88,-245 0,-103 29,-186 88,-246 59,-60 141,-90 245,-90 103,0 185,30 244,90 59,60 89,143 89,246zm-221 164c16,-20 28,-43 36,-70 8,-27 12,-58 12,-94 0,-39 -5,-72 -14,-99 -9,-27 -21,-49 -35,-66 -15,-17 -32,-30 -51,-38 -19,-8 -39,-12 -60,-12 -21,0 -41,4 -60,12 -18,7 -35,20 -51,37 -15,16 -26,39 -36,67 -9,29 -13,62 -13,99 0,39 4,72 13,98 9,28 21,50 35,67 14,17 31,29 51,37 19,9 40,13 61,13 21,0 42,-5 61,-13 20,-8 36,-21 51,-38zm1128 159l-161 0 -273 -443 0 443 -153 0 0 -646 199 0 235 370 0 -370 153 0 0 646zm790 0l-468 0 0 -646 468 0 0 125 -301 0 0 111 279 0 0 126 -279 0 0 159 301 0 0 125zm1713 -646l-174 646 -183 0 -117 -421 -113 421 -184 0 -174 -646 174 0 99 445 119 -445 167 0 114 445 104 -445 168 0zm906 323c0,103 -29,185 -88,245 -59,61 -141,91 -245,91 -104,0 -186,-30 -245,-91 -59,-60 -88,-142 -88,-245 0,-103 29,-186 88,-246 59,-60 141,-90 245,-90 103,0 185,30 244,90 60,60 89,143 89,246zm-221 164c16,-20 28,-43 36,-70 8,-27 12,-58 12,-94 0,-39 -5,-72 -14,-99 -8,-27 -20,-49 -35,-66 -14,-17 -31,-30 -51,-38 -19,-8 -39,-12 -60,-12 -21,0 -41,4 -59,12 -19,7 -36,20 -52,37 -14,16 -26,39 -35,67 -9,29 -14,62 -14,99 0,39 5,72 13,98 9,28 21,50 35,67 15,17 32,29 51,37 19,9 40,13 61,13 22,0 42,-5 61,-13 20,-8 37,-21 51,-38zm893 -290c0,-16 -3,-29 -10,-41 -6,-11 -18,-20 -34,-27 -11,-5 -24,-7 -39,-8 -14,-1 -32,-2 -51,-2l-60 0 0 172 51 0c26,0 48,-1 65,-3 18,-3 33,-9 45,-18 11,-9 20,-19 25,-29 5,-11 8,-26 8,-44zm261 449l-204 0 -175 -237 -76 0 0 237 -167 0 0 -646 279 0c39,0 71,2 99,7 27,4 53,13 77,28 24,14 43,33 58,56 14,23 21,52 21,86 0,48 -11,87 -33,117 -22,30 -53,55 -94,75l215 277zm714 0l-466 0 0 -646 167 0 0 521 299 0 0 125zm939 -322c0,60 -14,114 -41,161 -28,48 -62,84 -104,110 -32,19 -67,32 -104,40 -38,7 -82,11 -134,11l-227 0 0 -646 234 0c52,0 98,5 136,13 38,9 70,22 96,38 45,27 80,64 106,110 25,46 38,100 38,163zm-173 -2c0,-42 -8,-79 -23,-109 -16,-30 -40,-53 -74,-70 -16,-9 -34,-15 -52,-18 -17,-3 -44,-4 -80,-4l-41 0 0 403 41 0c40,0 69,-2 87,-5 19,-4 37,-10 54,-20 30,-17 52,-40 66,-69 15,-29 22,-65 22,-108z"/>
  <path class="fil4" d="M5667 3909c0,-247 -122,-459 -349,-459 -228,0 -350,211 -350,460 0,250 122,461 350,461 73,0 126,-17 185,-59l109 104 49 -71 -97 -92c80,-112 103,-221 103,-344zm-100 1c0,115 -23,194 -79,271 -9,11 -34,41 -64,57 -36,18 -67,27 -106,27 -150,0 -250,-141 -250,-355 0,-213 100,-354 250,-354 149,0 249,141 249,354zm1835 131l0 -568 -98 0 0 553c0,152 -68,239 -186,239 -117,0 -183,-87 -183,-241l0 -551 -97 0 0 584c0,192 107,314 276,314 176,0 288,-129 288,-330zm1721 307l0 -106 -431 0 0 -290 391 0 0 -106 -391 0 0 -267 424 0 0 -106 -521 0 0 875 528 0zm1662 -240c0,-124 -56,-205 -163,-235l-205 -58c-57,-15 -84,-51 -84,-113 0,-95 60,-151 162,-151 106,0 179,59 179,178l91 0c0,-192 -102,-279 -270,-279 -166,0 -256,113 -256,267 0,111 51,181 152,209l148 42c118,33 152,68 152,151 0,96 -68,151 -184,151 -125,0 -201,-67 -201,-205l-91 0c0,216 120,306 287,306 176,0 283,-100 283,-263l0 0zm1715 -529l0 -106 -584 0 0 106 244 0 0 769 98 0 0 -769 242 0z"/>
  <path class="fil0" d="M2815 3908c51,-213 66,-446 58,-691 0,-428 -57,-788 -141,-1205 -16,-87 -66,-254 -93,-337 -18,-52 -37,-113 -55,-161 -11,-32 -46,-59 -51,4 -6,72 -6,146 -12,218 -34,171 -82,318 -157,466l-115 202c-11,-487 -532,-629 -806,-358 -195,194 -177,565 85,723 104,63 141,67 302,67 -88,119 -589,240 -804,-26 -23,-25 -45,-56 -63,-84 -55,-90 -92,-242 -94,-236 -30,2 -50,165 -53,186 -47,360 330,581 586,738 113,70 224,130 328,207 178,131 342,261 437,429l1 1c2,5 5,9 7,14l7 13c14,27 26,54 35,83 2,5 3,9 5,14 1,5 3,10 5,15 1,5 2,9 3,14 0,0 1,1 1,2 1,4 2,8 3,13 0,0 0,1 0,1 1,5 2,10 3,14 2,6 3,11 4,17 1,4 1,9 2,14 2,11 3,22 5,33 0,5 1,10 1,16 0,0 0,0 0,0 1,5 1,10 1,15 0,1 0,2 0,2 1,5 1,10 1,16 0,0 0,0 0,1 0,5 0,10 1,15 0,6 0,13 0,19 0,6 -1,11 -1,16 0,7 0,13 -1,19 0,6 0,11 -1,17 -10,136 -119,242 -229,305 -29,16 -58,27 -91,37 -21,6 -44,13 -65,20 -40,16 -45,27 10,28 369,-8 624,-141 796,-478 63,-124 120,-300 145,-438z"/>
 </g>
</svg>
